<svg xmlns="http://www.w3.org/2000/svg" viewBox="0 0 340 108" width="340" height="108"><path d="M33.498 62.64c0-.653-4.27-10.428-5.08-10.428 0-.768-3.087-4.855-2.406-5.522-2.313-2.606-3.667-6.594-5.617-9.54-3.29 2.216-1.343 8.334-2.496 11.23 0 3.174.358 6.538.358 9.804 1.198 1.81 1.06 4.472 1.69 6.418 0 .69.346 2.947.894 3.472.927 4.75 2.48 9.01 2.75 13.97.17 3.166-1.07 7.377-1.435 10.84-.396 3.765-.467 7.804-2.207 11.284-.17 0-2.493 2.06-2.493 1.963-2.14 1.58-5.17.522-7.364.39-1.353-.08-2.747-.293-3.472-1.09-.852-.935-1.723-.854-2.888-1.35 0-1.013-2.493-1.246-2.674-1.962 0-.545.626-5.905 0-6.505 0-4.325.09-8.535.09-12.833 0-3.537.03-10.783 1.336-14.705 1.67-5.007.937-10.388 2.583-15.326.6-1.175.382-7.122 1.785-7.577-.52-2.042 1.665-6.437 2.16-8.166.407-1.42 1.38-7.328 2.742-7.788 0-2.594 5.085-2.22 6.324-3.477 4.15-1.26 7.18 2.158 10.785 3.487 1.596.588 2.896 3.09 4.155 4.223 1.22 1.1 2.35 3.128 3.24 4.59 0 .333.893 1.816 1.07 2.105.84 1.364 1.505 2.68 2.33 4.134.587 1.037 3.366 5.857 2.952 6.895-.63 1.583 8.815 20.082 9.424 19.84.976-1.992-.118-4.717.89-6.774.728-2.13.59-6.27.714-8.576.292-5.45 1.426-10.87 1.426-16.198 1.315-3.303-.313-8.27 1.426-11.32.888-3.553 1.105-7.446 1.66-11.14.227-1.5-1.304-1.67-1.304-2.94 0-1.036 1.07-2.266 1.07-3.566.762-1.556-.14-2.71 2.328-2.95.827-.08 2.848-.062 3.285-.972 1.655-.81 12.763-.06 11.228 4.546 0 .832.356 2.13.356 2.943.597 1.743-1.78 2.298-1.78 4.01-1.15 2.267-1.09 4.72-2.138 6.86 0 .95-.696 6.497-1.34 7.13 0 2.38-.355 5.14-.355 7.577.805 1.608-.267 5.314-.267 7.042 0 2.787.268 5.654.268 8.642-.632.317-.646 10.188-.355 11.052-.345.802-.503 2.952-.31 3.9.247 1.225.37 6.148-.227 7.33-.227 2.316-.837 21.21-2.67 21.21 1.673 2.492-6.34 3.264-8.022 1.604-1.05-.334-3.01-.367-3.922-.983 0-1.26-1.53-.507-.98-2.137-1.04-.462-1.327-1.05-2.496-.98 0-1.695.79-1.063 0-3.03-.607-.916-.81-1.834-1.303-2.842-1.07-2.185-2.007-4.4-3.03-6.606-.657-1.418-1.59-4.28-2.797-5.08 0-1.07-8.794-16.13-9.89-16.13 0-.178.268 0 0 0zM93.295 90c1.946-3.892 2.876-8.037 4.013-12.122.866-2.634 1.87-5.833 1.87-8.643.447-.444.145-2.44-.266-2.852 0-1.083-.153-.777-.715-1.34 0-.617.624-.452.624-1.066-.875.43-1.534-3.43-1.156-4.546 0-4.254 3.417-2.758 5.348-5.616 1.314-1.314 7.22-.64 9.2.023 1.517.51 2.84.526 4.21 1.383.943.588 2.292 2.788 3.077 3.053 0 .696-.31 3.66-.035 4.21.34.68-3.202 4.77-3.62 6.037 0 1.542-1.778 3.91-2.218 5.427-1.35 4.654-3.54 9.384-5.447 13.734-1.235 1.866-1.938 4.41-2.76 6.542-.833 2.156-3.832 5.854-3.832 7.896-1.58.63-3.35 3.906-4.992 4.992-1.14 0-1.88.89-3.12.89-1.304 0-3.67-1.306-4.902-.89-1.76-1.76-5.896-1.142-7.997-2.72-2.047-1.535-3.412-2.84-4.212-5.423-1.512-4.886-2.406-8.68-2.406-13.96-.098-4.25.623-8.56.623-12.742.278-2.052.405-4.396.96-6.39.61-2.188.52-6.145 1.804-8.047 0-2.768 1.732-5.393 2.05-8.2 1.05-1.227.284-2.596 2.037-2.996.666-.152 2.328.512 2.328-.658 1.18.595.96.735 1.694 0 .016-.006 3.615 3.636 3.83 4.278.934 1.904-.177 5.798-.177 8.2 0 5.21-1.42 10.574-1.238 15.617.22 6.056.08 11.276.08 17.356 0 1.98.578 4.623 1.713 6.127.282.373 3.34-6.37 3.63-7.553zm35.114-70.67c0-3.085.644-6.215.922-9.478.228-2.67 1.407-9.975 4.69-9.33.837-1.944 5.553 2.062 5.704 3.3.86 1.918.914 5.378 1.06 7.373.127 1.755 1.078 3.614 1.883 5.19 1.32 1.995.79 5.173.9 7.22.043.792-.525 4.057.2 4.28 1.497.457 3.675.532 5.404.532.506 0 9.89 1.094 9.89 1.604 2.81 0 6.66.094 9.358.98 1.21 0 7.948 4.02 5.26 4.903.025.05 1.348.715 1.514.715 0 .258-1.006.268-1.157.268-.467.913.562.58.888 1.067-.627 0-1.324 2.653-1.96 1.694-.356.357 3.43 2.57-.71 3.385 0 1.7-4.104 1.194-5.227.85-1.784-.547-5.226-.85-7.072-.85-.853-.68-4.106-.98-5.17-.98-1.902 0-10.277-1.842-10.828.647-.908 4.1-1.782 8.66-1.932 12.936-.142 4.067.44 10.123-.73 13.966-.638 2.094-.478 4.618-.37 6.802.08 1.65.64 6.172-.222 7.446 0 4.56.37 9.493 1.228 14.092.478 2.564.99 7.474-1.137 7.474 0 0-.98 1.26-.98 1.694-.213 0-1.13-.356-1.34-.356-.574-.582-1.054-.983-1.512-.983-.07.07-.268 1.29-.268 1.25-.25-.13-.457-.31-.624-.534-.045.297-.045.595 0 .893-.504 0-.865-.716-1.07-1.07-.92.918-4.657-2-5.847-2.932-.796-.622-1.6.65-2.796-.636 0-.61-.937-1.763-.97-2.84-.062-2.01-.49-4.194-.724-6.07-1.157-4.063 1.064-43.58 1.78-43.58.057-1.582.045-3.4.092-5.08.03 0 .356-1.442.356-1.604-.69-.52.214-1.34-.89-1.34-.8.27-1.704.22-2.55.258-4.058.18-10.9-1.05-14.382.726-2.78 2.216-13.355-.495-16.113-1.718-2.22-.984-4.333-2.065-6.313-3.385-1.35-.9-4.49-5.148-1.104-5.148.11-.887.586-1.185 1.426-.893.308.41.695.53 1.16.358 2.21-.95 1.244.348 1.244-1.43 1.59 0 4.606.542 6.028.927 2.203.596 5.258-.073 7.52-.303 1.464 0 14.97-2.14 14.97-1.96 1.576.533 5.665-.777 7.32-.946 3.877-.398 3.333-1.063 3.54-4.966.077-1.462.613-3.4-.343-4.42zm21.475 39.123c0-1.334 5.975-9.8 6.952-8.824 2.392-3.977 9.712-1.25 12.568-1.25 1.69 1.715 6.682.446 8.643 2.407 2.492 0 6.334 3.447 7.485 4.992 0 1.153-.504.475.446 1.425-.24.18-1.42-.303-1.336.268.13.17.248.348.356.533-1.173 0-1.514.712-2.137 1.335-2.075.525-5.226-1.062-7.17-1.634-1.765-.52-4.427-.372-6.2-.234-.573.38-3.298 1.755-3.923 1.604-4.217 2.263-7.396 7.52-3.207 11.85 2.13 1.087 4.308 3.21 6.86 3.21 1.966 0 4.77 1.295 6.62 2.105 2.463 1.08 4.387 2.85 6.46 4.558.82.674 2.525 1.414 2.965 2.518 1.148 0 1.826 3.144 2.315 3.654 3.055 2.023-5.037 10.64-6.314 12.208-2.54 3.118-7.04 5.883-11.063 5.883 0 .66-8.866-.892-9.717-.892-2.825-.622-9.754-1.917-11.494-4.278-.306.306-5.348-1.8-5.348-2.406-.61-.87.262-2.545.533-3.654.9 0 5.006-1.776 5.08-2.228.92-.232.737.61 1.786.268-.28-.7-1.16-.803-1.16-1.694 1.59.685 1.704 1.367 3.488 1.726 1.74.35 3.63.44 5.335.857 2.352 1.175 7.354-1.25 9.893-1.25 0-1.236 5.8-2.45 5.79-4.72 0-1.69-3.85-3.92-5.256-3.92-1-.37-3.16-1.34-4.278-1.34-.185-.536-2.665-1.604-3.3-1.604-.19-.392-5.94-3.533-5.88-3.563-.472-1.397-3.013-3.42-4.026-4.71-.99-1.263-1.53-2.92-2.086-4.403-.623-1.66-1.074-7.406.317-8.797 0-.09-.087.087 0 0zm54.81 30.3c0-.31 4.313 1.35 4.19 1.334 0 .86-1.08 3.443-1.65 4.3-.657.99-1.01 3.25-1.648 4.524-.74 1.48-1.632 3.753-2.674 4.816-1.488.483-3.585 2.81-4.278 4.187-.893-.3-.384-2.34-1.547-1.805-.905.416-.876.94-1.77.044-1.158-1.16-1.98-2.094-3.366-3.14-.28-1.095-.68-1.354-.893-2.407.284-.285.813-1.465.177-1.78-.35-.733-1.238-2.38-1.09-3.568.174-1.396 1.418-3.49 3.23-2.583.312-1.22 1.03-.945 1.782-.446 1.312 0 1.22-.55 2.217-1.55 1.112-1.113 5.43-2.88 7.317-1.926zm45.004-40.195c1.786.363.933 1.248 2.942 1.248-.077.11-.136.228-.178.356-.18-.237-.358-.237-.537 0 5.017 1.695 13.56 3.143 17.57 8.668 1.075 1.483 1.77 2.55 2.383 4.377.274.817 1.32 5.366.37 5.85.71 1.68.372 9.53-1.427 10.247.746 1.506-5.882 7.93-5.88 7.93 0 1.906-8.84 6.953-10.164 6.953-1.124 1.14-5.72.802-7.127.802-3.098 0-4.8-1.79-7.31-3.04-4.717-2.355-5.838-6.142-8.11-10.596-.652 0-3.823 3.384-4.145 3.91-.728 1.19-7.226 5.014-8.776 3.843.116-.13.263-.188.443-.178-1.066 0-2.48.424-4.72-.18-2.583-.872-5.537-3.114-8.378-3.743 0-.38-4.892-3.445-5.28-4.232-.976-1.97-2.742-3.14-2.742-5.568-1.465-1.526-.837-8.667.178-10.696 0-2.22 1.59-5.364 2.496-7.13 0-1.83 3.185-5.614 4.367-6.773 0-1.13 2.73-3.617 3.474-4.456 1.306-1.47 3.576-4.804 5.817-4.667.86.053 1.43-.234 2.473-.234 1.452.167 2.658 1.338 4.187 1.338 1.298 1.034 4.638 2.742 6.328 3.117.52.784 2.71 3.834 1.204 4.714-1.092.636-3.275.876-4.993 1.658-1.852.843-4.442 2.36-6.462 2.806 0 2.528-6.06 4.927-6.06 7.667-1.81 0-2.404 8.878-2.448 9.618-.075 1.27-.048 2.333-.048 3.572-.247 2.007 3.91 3.083 5.082 3.922.853 0 7.307 2.802 7.307-.715 1.897-.633 4.352-4.3 5.56-5.86 1.978-2.557 4.485-4.857 6.11-7.597 1.076-2.12 1.63-3.585 1.07-6.328 1.265-3.172 3.037-3.746 6.25-3.62 1.61.063 2.714 1.305 3.645 1.305 0-1.488-.533-4.48 0-5.526.775-.262.802-.72.802-1.425.522.128 1.78-.59 1.78-1.16.503-.1.603.892.98.892.483 0 1.555-.698 1.427-.446.165-.218.343-.426.535-.622zM225.726 87.86c-.087-.178.09-.356.268-.178 0 .09-.177.178-.268.178zm31.994-16.396c0-1.857-2.47-10.086-4.632-9.535 1.494 4.115-5.617 1.443-5.617 4.455-.932.307-.798 2.918-1.334 3.476.044.086-.487-1.11-.178-.8-1.516-.388-1.846 8.34-2.05 9.18 0 3.738.19 7.64 5.38 6.803 3.173-.512 5.98-5.318 6.795-8.053.154-.517 1.026-1.21 1.27-2.262.273-1.183-.35-2.073.368-3.264 0-.09-.268.446 0 0zm42.956-36.094c1.262 1.262 5.04 3.876 4.278 6.86.65.65 1.21 3.388.893 4.37 0 1.45-.363 5.433.446 6.504.75 0 4.038-5.303 4.544-6.094 1.11-1.734 2.576-4.476 4.276-5.76 3.463-2.293 5.352-4.278 9.894-4.278.913.313 2.067.446 3.03.446.402.402 1.604 1.422 2.137 1.694.383 1.503 2.587 3.034 2.587 4.633.813.278 2.05 4.144 2.05 4.902 0 3.258 1.213 6.848.82 10.143-.623 5.248-.593 11.71.247 16.95 0 1.435 1.19 5.305 2.496 5.972 0 .92 1.444 2.597-.268 3.03 0 .217.05 2.343-.078 2.515-.737.99-4.9 2.68-5.937 2.163-1.348-.672-2.82-1.436-3.876-2.45-.484-.967-2.647-2.443-1.87-4.01.057-.117-.448-3.134-.448-3.12 0-2.133-1.078-5.03-1.245-7.484-.228-2.936-.445-5.68-.445-8.598 0-2.054.798-7.81-.537-9.405-1.766 0-2.856 6.91-4.81 7.307 0 2.5-2.762 4.686-2.762 7.13-.867.293-2.447 5.683-2.725 6.33-1.222 2.856-4.137 4.43-6.544 5.88-.512 0-1.97.985-2.384 1.316-1.744 1.393-2.115-.245-3.675-.245-3.055-1.158-4.415-2.033-5.44-5.438 0-2.845-1.334-5.782-1.334-8.643 0-.92.397-9.97-.624-10.784-1.263 1.262-4.57 11.625-3.643 12.23-.1-.064-.048 12.903-.302 13.202-1.006 1.183-.465 5.492-.69 7.096-.04.042-3.206 3.237-3.206 2.852-.956.12-3.556 1.18-4.1.09-.82 0-1.672-.355-2.407-.355-1.23-.25-2.58-.98-3.478-1.872-.517-.515-1.725-4.188-.268-4.188.278 0 2.97-15.735 2.15-16.266-.445-.29.607-5.126.703-6.014.474-2.923 1.647-6.527 1.647-9.404 0-2.966 2.014-5.936 2.453-8.955-.498 0 4.767-9.006 4.902-9.534.762 0 2.895-1.754 3.654-2.14.406-.136 3.652.032 3.652-.5 0-.934 5.683.79 6.238 1.924.178.177-.087-.178 0 0z"/></svg>